<mxfile host="app.diagrams.net" agent="Mozilla/5.0 (Windows NT 10.0; Win64; x64) AppleWebKit/537.36 (KHTML, like Gecko) Chrome/141.0.0.0 Safari/537.36 Edg/141.0.0.0" version="28.2.8">
  <diagram name="Page-1" id="-IwS2tVLEvbHGXlkRToN">
    <mxGraphModel dx="1418" dy="828" grid="1" gridSize="10" guides="1" tooltips="1" connect="1" arrows="1" fold="1" page="1" pageScale="1" pageWidth="827" pageHeight="1169" math="0" shadow="0">
      <root>
        <mxCell id="0" />
        <mxCell id="1" parent="0" />
        <mxCell id="j1ByfCW1pLs-Bahw_pj0-14" value="" style="group;rotation=0;strokeWidth=16;" parent="1" vertex="1" connectable="0">
          <mxGeometry x="575" y="705" width="515" height="494.99999999999994" as="geometry" />
        </mxCell>
        <mxCell id="j1ByfCW1pLs-Bahw_pj0-16" value="" style="verticalLabelPosition=bottom;verticalAlign=top;html=1;shape=mxgraph.basic.arc;startAngle=0.2484085036175459;endAngle=0.5;strokeWidth=16;strokeColor=light-dark(#0020D1,#077FFF);flipV=1;flipH=1;rotation=0;fillColor=none;" parent="j1ByfCW1pLs-Bahw_pj0-14" vertex="1">
          <mxGeometry width="515" height="494.99999999999994" as="geometry" />
        </mxCell>
        <mxCell id="j1ByfCW1pLs-Bahw_pj0-8" value="" style="endArrow=none;html=1;rounded=0;strokeWidth=16;strokeColor=light-dark(#0020D1,#007FFF);curved=1;fillColor=#0050ef;" parent="1" edge="1">
          <mxGeometry width="50" height="50" relative="1" as="geometry">
            <mxPoint x="317.5" y="705" as="sourcePoint" />
            <mxPoint x="575" y="705" as="targetPoint" />
          </mxGeometry>
        </mxCell>
        <mxCell id="j1ByfCW1pLs-Bahw_pj0-12" value="" style="group;rotation=90;strokeWidth=16;fillColor=none;strokeColor=none;" parent="1" vertex="1" connectable="0">
          <mxGeometry x="59" y="705" width="515" height="494.99999999999994" as="geometry" />
        </mxCell>
        <mxCell id="j1ByfCW1pLs-Bahw_pj0-13" value="" style="verticalLabelPosition=bottom;verticalAlign=top;html=1;shape=mxgraph.basic.arc;startAngle=0.2484085036175459;endAngle=0.5;strokeWidth=16;strokeColor=light-dark(#0020D1,#077FFF);flipV=1;rotation=0;fillColor=none;" parent="j1ByfCW1pLs-Bahw_pj0-12" vertex="1">
          <mxGeometry width="515" height="494.99999999999994" as="geometry" />
        </mxCell>
        <mxCell id="j1ByfCW1pLs-Bahw_pj0-19" value="" style="endArrow=none;html=1;rounded=0;strokeWidth=16;strokeColor=light-dark(#0020D1,#007FFF);curved=1;fillColor=#0050ef;" parent="1" edge="1">
          <mxGeometry width="50" height="50" relative="1" as="geometry">
            <mxPoint x="575" y="705" as="sourcePoint" />
            <mxPoint x="832.5" y="705" as="targetPoint" />
          </mxGeometry>
        </mxCell>
      </root>
    </mxGraphModel>
  </diagram>
</mxfile>
